<?xml version="1.0" standalone="no"?>
<svg xmlns="http://www.w3.org/2000/svg" xmlns:xlink="http://www.w3.org/1999/xlink" version="1.1" viewBox="-1.00195 -64.9795 640.104 448.576" >
    <path fill="#cc9933"
      d="M256 440c137 0 248 -111 248 -248s-111 -248 -248 -248s-248 111 -248 248s111 248 248 248zM227.1 296.4l75.5 -72.4004h-182.6c-13.2998 0 -24 -10.7002 -24 -24v-16c0 -13.2998 10.7002 -24 24 -24h182.6l-75.5 -72.4004
      c-9.69922 -9.2998 -9.89941 -24.7998 -0.399414 -34.2998l11 -10.8994c9.39941 -9.40039 24.5996 -9.40039 33.8994 0l132.7 132.6c9.40039 9.40039 9.40039 24.5996 0 33.9004l-132.7 132.8c-9.39941 9.39941 -24.5996 9.39941 -33.8994 0l-11 -10.9004
      c-9.5 -9.59961 -9.2998 -25.0996 0.399414 -34.3994z" />
</svg>
